/* XPM */
static char *cb0ps_z2tex[] = {
/* columns rows colors chars-per-pixel */
"16 16 127 2 ",
"   c None",
".  c #FF0000",
"X  c #FF0001",
"o  c #FF0101",
"O  c #FE0201",
"+  c #F70D06",
"@  c #FA0804",
"#  c #F90A05",
"$  c #EF1506",
"%  c #EE1606",
"&  c #EF1606",
"*  c #EE1706",
"=  c #EE1707",
"-  c #F01406",
";  c #F01506",
":  c #F21609",
">  c #F01B0D",
",  c #F61C13",
"<  c #D53A11",
"1  c #D63A11",
"2  c #D53A12",
"3  c #D43B12",
"4  c #D43C12",
"5  c #DD3D1C",
"6  c #E6220A",
"7  c #E6230A",
"8  c #E5240B",
"9  c #EB2612",
"0  c #F1271A",
"q  c #E13519",
"w  c #E1361A",
"e  c #B8651F",
"r  c #B76720",
"t  c #B86520",
"y  c #B86620",
"u  c #B66820",
"i  c #C65119",
"p  c #C55219",
"a  c #C55319",
"s  c #D94420",
"d  c #D94521",
"f  c #D74D26",
"g  c #DA4824",
"h  c #CC5C2B",
"j  c #D05628",
"k  c #C8652F",
"l  c #E15F43",
"z  c #D37D53",
"x  c #7FBC3E",
"c  c #7FBD3E",
"v  c #5EF859",
"b  c #5EF959",
"n  c #5DF85A",
"m  c #5CF95B",
"M  c #5CFA5B",
"N  c #67E750",
"B  c #67E850",
"V  c #66E851",
"C  c #66E951",
"Z  c #60F658",
"A  c #61F658",
"S  c #60F758",
"D  c #63F45A",
"F  c #62F65B",
"G  c #5CFF60",
"H  c #7DE161",
"J  c #64FF67",
"K  c #62FF6A",
"L  c #64FF68",
"P  c #6EFF6F",
"I  c #74F56B",
"U  c #73F76C",
"Y  c #6DFF71",
"T  c #6CFF72",
"R  c #6DFF72",
"E  c #73FF73",
"W  c #73FF74",
"Q  c #71FF76",
"!  c #72FF76",
"~  c #74FF74",
"^  c #7BFF7F",
"/  c #7CFF7F",
"(  c #929E33",
")  c #939E33",
"_  c #91A033",
"`  c #92A033",
"'  c #91A034",
"]  c #90A134",
"[  c #90A234",
"{  c #80BB3D",
"}  c #80BB3E",
"|  c #B18F43",
" . c #AE9647",
".. c #AD9848",
"X. c #B3974D",
"o. c #B2994E",
"O. c #B69750",
"+. c #BD9352",
"@. c #B29F54",
"#. c #B99D58",
"$. c #9DA646",
"%. c #94B74D",
"&. c #99BB56",
"*. c #A6A24B",
"=. c #ABA451",
"-. c #ABA552",
";. c #A4AB51",
":. c #A5AB51",
">. c #ABAA57",
",. c #B5A45C",
"<. c #BDA463",
"1. c #C1A467",
"2. c #81DA5D",
"3. c #9EC161",
"4. c #8BD563",
"5. c #A1C265",
"6. c #82F97E",
"7. c #ABD785",
"8. c #A9DE8A",
"9. c #86FF88",
"0. c #86FF89",
"q. c #85FF8A",
"w. c #8BFF8F",
"e. c #8CFF8C",
"r. c #8CFF8D",
"t. c #A6FBA3",
"y. c #A6FCA4",
/* pixels */
"          * 4 a a 4 =           ",
"      $ r c C S S C c u &       ",
"    7 _ n K Y ~ ! T K M ] 8     ",
"  ; _ G H :.3.6.5.>.;.%.F [ $   ",
"  r v R -.X d 4.9 o . g I b u   ",
"& } L ^ ,.. s | O . X +./ L c * ",
"2 N P q.<.. q 5 . . , 7.0.P V 4 ",
"i A E w.1.X + @ # : l t.r.W S a ",
"i A E w.1.o . . j &.z y.e.W Z p ",
"< N P q.<.o . . k *.0 8.9.P V 3 ",
"$ } J ^ ,.o . . h j . #.^ L x % ",
"  t v R =.o . . w > . f U b r   ",
"  - ( G 2...X.O.@.o. .$.D ' ;   ",
"    6 ) n K T Q ! T K m ` 7     ",
"      ; e { B A A B } y $       ",
"          $ 1 i i < &           "
};
