/* XPM */
static char *cbbzb_79jny[] = {
/* columns rows colors chars-per-pixel */
"64 64 167 2 ",
"   c None",
".  c #FF0000",
"X  c #F60C05",
"o  c #F90A05",
"O  c #F80E08",
"+  c #EE1606",
"@  c #EC1907",
"#  c #E91D09",
"$  c #F21005",
"%  c #F41309",
"&  c #F9120D",
"*  c #F1190C",
"=  c #DD2D0D",
"-  c #D9320F",
";  c #D23C12",
":  c #DB3F1E",
">  c #E5230A",
",  c #E0290C",
"<  c #E62B14",
"1  c #E72D18",
"2  c #EF2113",
"3  c #F4231A",
"4  c #E13418",
"5  c #E73923",
"6  c #F03226",
"7  c #BC5B1B",
"8  c #B4651E",
"9  c #B16A1F",
"0  c #AF6C20",
"q  c #B06B20",
"w  c #AB7222",
"e  c #A57B25",
"r  c #BE6F32",
"t  c #BE7437",
"y  c #BD7638",
"u  c #BA7B3A",
"i  c #B67834",
"p  c #CD4314",
"a  c #C64C17",
"s  c #C84A16",
"d  c #C15419",
"f  c #D94320",
"g  c #D44C24",
"h  c #D94A26",
"j  c #CB5C2B",
"k  c #CE5629",
"l  c #D05327",
"z  c #E64933",
"x  c #E05034",
"c  c #C8612E",
"v  c #C26D35",
"b  c #C66F3A",
"n  c #C96F3E",
"m  c #D3623A",
"M  c #C3723A",
"N  c #CB6F40",
"B  c #DE6547",
"V  c #CA7040",
"C  c #C57A45",
"Z  c #D67B56",
"A  c #E36148",
"S  c #7DB436",
"D  c #77BD39",
"F  c #78BB38",
"G  c #6FC73C",
"H  c #6ECA3D",
"J  c #72C43B",
"K  c #68D23F",
"L  c #65D741",
"P  c #68D240",
"I  c #63DB42",
"U  c #7BDD5D",
"Y  c #5DE545",
"T  c #59E947",
"R  c #56EE48",
"E  c #57EC47",
"W  c #4DFD4E",
"Q  c #52F44A",
"!  c #50F94C",
"~  c #4DFF51",
"^  c #54FF54",
"/  c #5CFF5C",
"(  c #7FE76A",
")  c #78EB66",
"_  c #64FF64",
"`  c #66FF68",
"'  c #6BFF6B",
"]  c #72FA6F",
"[  c #6EFF71",
"{  c #7AF471",
"}  c #74FF74",
"|  c #74FF79",
" . c #7CFF7C",
".. c #9F8327",
"X. c #9D8628",
"o. c #9A8A29",
"O. c #978E2A",
"+. c #8C9F2F",
"@. c #95922B",
"#. c #8B9F30",
"$. c #A18126",
"%. c #87A632",
"&. c #89A231",
"*. c #83AC33",
"=. c #AE8F44",
"-. c #B18C42",
";. c #AA9948",
":. c #A79F4B",
">. c #B59751",
",. c #93BF56",
"<. c #97BD59",
"1. c #9BBF5D",
"2. c #9BB655",
"3. c #A5A44E",
"4. c #A2A84F",
"5. c #ACA254",
"6. c #A4A851",
"7. c #B5A25D",
"8. c #9FBF61",
"9. c #BCA264",
"0. c #A3BF65",
"q. c #A6BE69",
"w. c #A9BF6B",
"e. c #B5B06A",
"r. c #C58852",
"t. c #CA9A69",
"y. c #C3A26B",
"u. c #C8B17E",
"i. c #8ECA5E",
"p. c #8DC152",
"a. c #93C45C",
"s. c #90C95F",
"d. c #8ECD60",
"f. c #94C760",
"g. c #85DF68",
"h. c #8AD564",
"j. c #9FCF72",
"k. c #99DA78",
"l. c #A4C26A",
"z. c #ABCE7F",
"x. c #83E269",
"c. c #80E86C",
"v. c #89E572",
"b. c #85F27A",
"n. c #7DFF81",
"m. c #CFB083",
"M. c #B8C683",
"N. c #B7DB97",
"B. c #94EF87",
"V. c #83FF83",
"C. c #86FF89",
"Z. c #8BFF8B",
"A. c #8CFF90",
"S. c #93FF94",
"D. c #9FF79A",
"F. c #96FF9A",
"G. c #9BFF9C",
"H. c #A1E98F",
"J. c #9EFFA2",
"K. c #BAE9A6",
"L. c #A2FFA4",
"P. c #ABFFAC",
"I. c #ABF4A3",
"U. c #B3FEB3",
"Y. c #B5FFB8",
"T. c #CAC392",
"R. c #C2E1A9",
/* pixels */
"                                                    . . . . . . . . . . . .                                                     ",
"                                            . . . . . . . . . . . . . . . . . . . .                                             ",
"                                        . . . . . . . . $ # > , , > @ $ . . . . . . . .                                         ",
"                                  . . . . . . X = 7 o.*.G K Y T Y Y L H S o.7 = X . . . . . .                                   ",
"                                . . . . . - e D T W ~ ~ ^ ~ ! ^ ^ ~ ^ ~ ~ ~ W Y D e - o . . . .                                 ",
"                            . . . . X s %.T W W ^ ^ ^ ^ ^ / / ^ ^ / ^ ^ ^ ^ ^ ^ ~ ~ T %.a X . . . .                             ",
"                          . . . . p *.Q W ~ ! / ^ / / / / / / _ _ / / / / / ^ / ^ ^ ~ ~ Q S p . . . .                           ",
"                      . . . . # O.E ~ ^ ^ ^ / / / _ / _ _ ` ` _ ` ` _ _ _ _ _ / / / ^ ^ ^ W R @.> . . . .                       ",
"                    . . . . s G W ^ ^ ^ / / _ _ _ ' ` ` ` ` ' ' ` ` ' ` ` ` ` _ _ _ / / / ^ ^ W H s . . . .                     ",
"                  . . . o q T W ! / / / _ _ _ ` ' ' ' ' } ] } ' } ] ] ] ' ` ' ' ` _ _ _ / / ^ ^ ~ E w X . . .                   ",
"                . . . X ..Q ~ ^ ^ / _ _ ` ` ' ' ' } } } } | }  . .} | | } } } } ' ' _ _ _ / / ^ ^ ~ ! X.X . . .                 ",
"              . . . X o.W ^ ^ / / _ _ ` ` ' } } } }  . . . .b. . . .b. . . .} } } ] ] ' ` ` _ / / ^ ^ W @.X . . .               ",
"              . . o $.W ^ ^ / / _ ` ` ' } | }  .b. . .V.V.V.V.V.V.V.V.V.V. . . . .} } ] ' ` ` _ / / ^ ^ W ..X . .               ",
"            . . . 9 Q ^ ^ / / _ ` ` ] } | |  .b.V.V.C.C.Z.Z.Z.Z.Z.Z.C.Z.C.C.V.V.n. . .| } } ` _ _ / / ^ ~ ! 0 . . .             ",
"          . . . s Y W ^ / _ _ ` ` } x.<.<.a.f.q.l.q.l.b.b.V.V.V.V.j.w.w.q.q.q.0.0.f.8.1.<.a.,.p.) _ _ / ^ ^ T s . . .           ",
"          . . # G W ^ / / _ ` ' } } 6.O o o o o o o * a.| } } } g.< o o O o o O o o o o X o . < U ` _ / / ^ ~ H > . .           ",
"        . . . O.! ^ / / _ ` ' ] }  .5.. . . . . . . X a.} | } | ;.. . . . . . . . . . . . . . j ' ` ` _ / / ! W @.o . .         ",
"      . . . ; E ! ^ / _ ` ` ] }  . .5.o . . . . . . % a.} | | { g . . . . . . . . . . . . . o 6.} } ' ` _ / / ! R p . . .       ",
"      . . X *.~ ^ / _ _ ' ' } |  .n.5.. . . . . . . X a.| | | a.% . . . . . . . . . . . . . 1 v. .} ] ` _ _ / ! W S X . .       ",
"      . . s Q ^ ^ / _ ` ' } | b.V.C.7.. . . . . . . % a.} | } v . . . . . . . . . . . . . . M V. .| } ' ` _ / / ^ Q s . .       ",
"    . . . &.~ ^ / _ _ ' } }  .b.V.C.7.. . . . . . . X a.| | x.< . . . . . . . . . . . . . O w.V.b. .| ' ' ` / / ^ ~ %.o . .     ",
"    . . - Y ^ ^ / _ ` ' }  . .V.C.A.9.. . . . . . . O a.| | 3.. . . . . . . . . . . . . . f B.Z.C. . .} ] ` _ / / ~ T - . .     ",
"  . . . w W ^ / _ _ ` } }  .V.C.Z.A.9.. . . . . . . O a.| { g . . . . . . . . . . . . . . r.S.Z.C.b. .} ] ` ` _ / ^ W e . . .   ",
"  . . X F ~ ^ / _ ` ' } | b.V.Z.A.F.9.. . . . . . . X p.| i.% . . . . . . . . . . . . . & z.S.Z.Z.V.n. .} ' ` _ / ^ ~ D X . .   ",
"  . . , Y ^ ^ / ` ` ] }  .V.C.Z.S.F.9.. . . . . . . O a.| y . . . . . . . . . . . . . . x D.F.S.Z.C.n. .} ] ' _ / / ~ T = . .   ",
"  . . d W ^ / / ` ' } |  .V.C.Z.S.G.9.. . . . . . . O a.c.4 . . . . . . . . . . . . . . t.J.G.F.Z.Z.V. .| } ' ` / / ^ W 7 . .   ",
". . . $.W ^ / _ ' ' } | b.C.Z.S.F.J.y.o . . . . . . O a.6.. . . . . . . . . . . . . . 3 N.L.J.F.S.Z.V.b. .} ' ` _ / ^ W o.. . . ",
". . . %.W ^ / _ ` ' }  .b.C.Z.S.F.J.y.. . . . . . . X <.k . . . . . . . . . . . . . . A L.L.G.F.S.Z.C.b. .} ] ` _ / ^ W *.. . . ",
". . X J ~ / / _ ' ] | b.V.C.Z.S.F.L.y.o . . . . . . O =.@ . . . . . . . . . . . . . o u.U.L.L.G.S.Z.Z.V. .} } ' ` / ^ ~ H $ . . ",
". . + K ^ ^ / _ ' ' |  .V.C.S.S.G.L.y.. . . . . . . O f . . . . . . . . . . . . . . 6 K.P.L.L.G.F.Z.Z.V. . .' ` _ / / ~ L @ . . ",
". . > I W / / ` ' ] }  .V.Z.Z.S.G.L.y.. . . . . . . . o . . . . . . . . . . . . . . Z U.U.L.L.G.S.Z.Z.V. .} } ` _ / ^ ^ Y > . . ",
". . > Y ^ ^ / ` ' } } b.V.Z.S.S.G.L.y.. . . . . . . . . . . . . . . o % % % % % o & T.U.U.P.L.G.G.S.Z.V.b.| ] ' _ _ / ^ Y , . . ",
". . > Y ^ ^ _ _ ' } |  .b.Z.S.S.J.L.y.. . . . . . . . . . . . . . . c d.d.i.i.i.t 3 R.Y.U.P.L.G.S.S.Z.b. . .} ' ` _ / ^ Y , . . ",
". . # I ! / / _ ` } |  .C.Z.Z.F.J.L.y.. . . . . . . . . . . . . . . y | | | | { k . m.Y.P.P.L.G.S.S.Z.V.b.| ' ` _ / ^ ^ Y > . . ",
". . + K ^ ^ / _ ' ' | b.V.C.S.F.G.J.y.. . . . . . . . . . . . . . . y | | } | h.* . A Y.P.P.J.G.S.S.Z.V. .} ] ' _ _ ^ ~ L @ . . ",
". . X J ^ ^ / _ ' } |  .b.C.Z.S.G.J.y.. . . . . . . . . . . . . . . y } | } | -.. . 3 N.P.P.J.F.S.Z.Z.b. .} ] ' _ / / W G X . . ",
". . . %.W ^ / _ _ ] }  .V.C.Z.S.F.J.y.. . . . . . . . . . . . . . . y | } | c.f . . . t.P.L.J.F.S.Z.C.b. .| ] ` _ / ^ W *.. . . ",
". . . $.W / / _ ` ' }  . .C.Z.Z.F.G.y.. . . . . . . . . . . . . . . y } } | a.% . . . z I.L.G.F.S.Z.C.V.} } ' ` _ / ^ W X.. . . ",
"  . . d ! ^ / _ _ ' '  . .V.Z.Z.S.F.9.. . . . . . . . . . . . . . . y } | } u . . . . & M.L.G.S.Z.Z.V. .} } ` ` / / ^ W 7 . .   ",
"  . . , Y ! ^ / _ ' ' }  .b.C.Z.A.J.9.. . . . . . . . . . . . . . . M | } c.4 . . . . . Z G.S.S.Z.C.b. .} } ' _ / / ^ T = . .   ",
"  . . o S ~ ^ / _ _ ' } | b.C.Z.A.F.9.o . . . . . . . . . . . . . . t } | 2.X . . . . . 6 H.S.S.Z.V.b.| } ' _ _ / ^ ~ F X . .   ",
"  . . . w W ^ / _ _ ' ] }  .n.C.Z.S.9.. . . . . . . . . . . . . . . t | { v . . . . . . o e.A.Z.C.V. .} ] ' _ _ / ^ W e . . .   ",
"    . . = Y ~ / / _ ' ' }  . .V.C.A.9.. . . . . . . . . . . . . . . t } ( < . . . . . . . m Z.C.V.b. .} ' ` _ / ^ ^ Y - . .     ",
"    . . . #.W ^ / _ _ ` ] }  .b.C.Z.7.. . . . . . . . . . . . . . . t | 4.. . . . . . . . 2 k.C. . .| ] ' ` / / ^ ~ %.. . .     ",
"      . . p R ~ ^ / _ ` ' } |  .n.C.>.o . . . . . . . . . . . . . . t { j . . . . . . . . . >.n. .} } ' ` _ / / ^ Q s . .       ",
"      . . X %.~ ^ / _ _ ' ] } | n.n.7.. . . . . . . . . . . . . . . t h.2 . . . . . . . . . h b. .} } ` ` / / ^ W *.X . .       ",
"      . . . ; T ! / / _ _ ' } } | n.5.. . . . . . . . . . . . . . . y ;.. . . . . . . . . . % f.} ] ` ` _ / ^ ~ E p . . .       ",
"        . . . X.! ^ ^ / _ ` ` } | | 3.. . . . . . . . . . . . . . . v g . . . . . . . . . . . u } ' ` _ / / ^ W O.. . .         ",
"          . . @ J ~ ^ / / _ ` ' ] | 3.. . . . . . . . . . . . . . . : * . . . . . . . . . . . 4 ) ` _ / / ^ W G # . .           ",
"          . . . p Y ~ ^ / / _ ` ' ] i.t v b b b b n n n N n N N N n C n n n n b b b M v v v r i U / _ / ^ W Y s . . .           ",
"            . . . 9 Q ^ ^ / _ _ ` ' ' | } |  . .V.V.C.C.C.C.Z.Z.Z.Z.C.C.C.C.V.V.n. . .| [ [ ` ` ` / / ^ ^ ! q . . .             ",
"              . . . e W ! ^ / / _ ` ` ' } } }  . . . .V.V.V.V.V.V.V.V.V.V. . .b. .} } } ' ` ` _ / / ^ ! W X.. . .               ",
"              . . . X ..! ^ ^ / / _ _ ` ' ] ] } } |  . . . .b. . .b. . .b.| | } } } ' ' ` _ _ / / ^ ^ W X.X . . .               ",
"                . . . X e Q W ^ / / / _ ` ` ` ' ' } } } } } } | | | | } } } } ' ' ` ` ` _ _ / ^ ^ ^ Q $.X . . .                 ",
"                  . . . . 8 Y ~ ^ ^ / / _ _ ` ` ` ' ] ' ] ] ] } ] } } ' ' ' ' ` ` ` _ _ / / ^ ^ W T 9 o . . .                   ",
"                    . . . . p J W ! ^ ^ / / / _ ` _ ` ` ' ' ` ' ` ' ' ` ' ` _ _ _ / / / ^ ^ ^ W G p . . . .                     ",
"                      . . . . @ X.T ~ ^ ^ ^ / / / / _ _ _ _ _ _ ` _ _ _ _ / _ / / / ^ ^ ^ ~ T o.# . . . .                       ",
"                          . . . . ; %.Q W ^ ^ ^ / / / / / _ / / / _ _ / / / ^ / ^ ^ ^ ~ Q *.p . . . .                           ",
"                            . . . . o p #.Y W ~ ~ ^ ^ ^ ^ / ^ / / ^ ^ ^ ^ ^ ^ ^ ~ W Y %.p X . . . .                             ",
"                                . . . . . = w S Y ! W ~ ~ W ^ ^ ! ^ ^ ~ ~ W W Y S w = . . . . .                                 ",
"                                  . . . . . . o , d e %.J H I Y Y I K J %.$.d , X . . . . . .                                   ",
"                                        . . . . . . . . X + > > > # + X . . . . . . . .                                         ",
"                                            . . . . . . . . . . . . . . . . . . . .                                             ",
"                                                    . . . . . . . . . . . .                                                     "
};
