/* XPM */
static char *cbe4u_ytk9b[] = {
/* columns rows colors chars-per-pixel */
"32 32 110 2 ",
"   c None",
".  c #FF0000",
"X  c #F60D04",
"o  c #F90A05",
"O  c #E81F09",
"+  c #F21105",
"@  c #F41309",
"#  c #F9100B",
"$  c #F1180B",
"%  c #F61810",
"&  c #DE2D0D",
"*  c #DA320F",
"=  c #D73710",
"-  c #D83510",
";  c #DE3C1D",
":  c #E6220A",
">  c #E1290C",
",  c #E92712",
"<  c #EA2F1B",
"1  c #F02113",
"2  c #E43117",
"3  c #E23218",
"4  c #EF3021",
"5  c #AF6F21",
"6  c #B06E21",
"7  c #AD7222",
"8  c #A57F26",
"9  c #BE7537",
"0  c #B77B35",
"q  c #DA401E",
"w  c #C35319",
"e  c #DD4323",
"r  c #D54B24",
"t  c #DB4C2B",
"y  c #CB5C2A",
"u  c #D1592D",
"i  c #D55A32",
"p  c #D95A36",
"a  c #DD5A3B",
"s  c #E04225",
"d  c #E9442F",
"f  c #C8622E",
"g  c #CB6735",
"h  c #C36D33",
"j  c #C96935",
"k  c #CD6939",
"l  c #D6623B",
"z  c #D0683A",
"x  c #CE7748",
"c  c #DB7755",
"v  c #7ABD3A",
"b  c #78C03B",
"n  c #70CB3F",
"m  c #6FCE40",
"M  c #6BD342",
"N  c #67DA44",
"B  c #68D843",
"V  c #5DEA4A",
"C  c #53FE54",
"Z  c #56FF59",
"A  c #5DFF5E",
"S  c #73E95F",
"D  c #60FD5E",
"F  c #72EB60",
"G  c #6BF663",
"H  c #63FF63",
"J  c #67FF68",
"K  c #6CFF6C",
"L  c #73F66C",
"P  c #71FA6D",
"I  c #7BF573",
"U  c #74FF74",
"Y  c #74FF7A",
"T  c #7BFF7B",
"R  c #A28327",
"E  c #A28328",
"W  c #B6833D",
"Q  c #83AF36",
"!  c #81B237",
"~  c #AC9647",
"^  c #A89E4A",
"/  c #B19B4F",
"(  c #9EB153",
")  c #AAA956",
"_  c #A8AC58",
"`  c #A5B45C",
"'  c #BDAF6F",
"]  c #D49068",
"[  c #96C05A",
"{  c #90CA5E",
"}  c #88DB66",
"|  c #98DC77",
" . c #B5C37C",
".. c #84E269",
"X. c #93E77D",
"o. c #85F67D",
"O. c #7FFF80",
"+. c #8AF682",
"@. c #85FF85",
"#. c #8CFF8C",
"$. c #93FE92",
"%. c #95FF99",
"&. c #9DFE9C",
"*. c #ADE899",
"=. c #A0FD9F",
"-. c #AAF3A0",
";. c #A0FFA0",
":. c #ABFFAD",
">. c #C8C28D",
",. c #C4D198",
/* pixels */
"                        . . . . . . . .                         ",
"                  . . X & w 7 E E 7 w * X . .                   ",
"              . . : 7 v V C C C C C C V b 7 : . .               ",
"            . + 7 N C Z A A A H H H D Z Z C N 7 + .             ",
"          . > ! C Z D H J J K K K K J J J A Z C ! > .           ",
"        . - m C Z J J U U T T T T T Y U U J H A C M = .         ",
"      . & m Z A J K U T @.@.@.@.@.@.@.O.T U K H A Z n & .       ",
"    . + ! C A J K ^ j j g ) T T ` k k k j j j 0 F A Z v + .     ",
"    . 7 C A J U U u . . . h Y I e . . . . . . t L J A C 7 .     ",
"  . : B Z H K U @.i . . . h Y [ X . . . . . . ~ T K J Z N : .   ",
"  . 5 C A J U T #.i . . . h U 9 . . . . . . 1 | O.U K A C 7 .   ",
"  X v Z H U T @.#.p . . . h .., . . . . . . l $.@.T K H Z b X   ",
". & V Z J U o.#.%.a . . . h ^ . . . . . . o ' %.#.O.U J A V & . ",
". w C A K U @.#.&.a . . . f r . . . . . . 4 *.&.#.@.U K A C w . ",
". 7 C H K U @.$.&.a . . . 3 @ . . . . . . c :.;.$.@.T K A C 7 . ",
". 8 C H P T @.%.=.a . . . . . . . # O @ % >.:.;.$.@.T K H C E . ",
". 8 Z D K T @.$.;.a . . . . . . . ~ } { t ,.:.;.%.@.T K H C E . ",
". 7 C D K T @.$.=.a . . . . . . o ( Y { $ ] :.;.$.@.T K D C 7 . ",
". w C D K Y @.#.&.a . . . . . . . ( Y W . d =.&.$.@.U K A C w . ",
". > V A J U T #.%.p . . . . . . . ( I ; . % ' %.#.T U J A V & . ",
"  X v Z H P T #.$.p . . . . . . o ( ( @ . . x $.@.T P H Z b X   ",
"  . 5 C D J U T +.i . . . . . . . ( 9 . . . < X.@.U J A C 7 .   ",
"  . : B Z H K U @.i . . . . . . o ~ 2 . . . o _ Y K H Z N : .   ",
"    . 6 C A J U U u . . . . . . o y o . . . . y P J A C 7 .     ",
"    . + Q C A J P W q e e s s s e u e e e e ; y S A C ! + .     ",
"      . > n Z D H L I I o.o.+.+.+.+.+.o.I I G G A Z m > .       ",
"        . * n C A H J K U Y T T T T U U K K H A C m - .         ",
"          . > ! C Z H H J J K K K K K J H A Z C ! > .           ",
"            . + 6 B C Z A A A H H A A A Z C B 5 + .             ",
"              . . O 6 v V C C C Z C C V v 7 O . .               ",
"                  . . X & w 5 8 8 5 w & X . .                   ",
"                        . . . . . . . .                         "
};
