<?xml version="1.0" standalone="no"?>
<!DOCTYPE svg PUBLIC "-//W3C//DTD SVG 20010904//EN"
 "http://www.w3.org/TR/2001/REC-SVG-20010904/DTD/svg10.dtd">
<svg version="1.0" xmlns="http://www.w3.org/2000/svg"
 width="2141.000000pt" height="2141.000000pt" viewBox="0 0 2141.000000 2141.000000"
 preserveAspectRatio="xMidYMid meet">

<g transform="translate(0.000000,2141.000000) scale(0.100000,-0.100000)"
fill="#000000" stroke="none">
<path d="M10120 21399 c-1463 -82 -2852 -446 -4155 -1089 -3025 -1493 -5180
-4340 -5789 -7648 -111 -602 -163 -1144 -173 -1792 -9 -624 20 -1096 103
-1685 395 -2794 1899 -5334 4169 -7040 2350 -1765 5303 -2482 8217 -1994 2816
471 5330 2062 6992 4427 1035 1473 1687 3227 1871 5032 64 631 71 1350 19
1975 -136 1651 -637 3214 -1487 4630 -964 1608 -2342 2940 -3995 3861 -1412
786 -2988 1236 -4637 1324 -219 11 -921 11 -1135 -1z m1125 -989 c1663 -98
3210 -586 4599 -1452 636 -396 1181 -832 1732 -1382 359 -359 626 -665 900
-1031 1093 -1456 1747 -3160 1908 -4965 49 -549 49 -1191 0 -1740 -177 -1983
-965 -3873 -2248 -5390 -377 -446 -865 -924 -1313 -1287 -1954 -1586 -4443
-2346 -6968 -2127 -1917 166 -3759 911 -5258 2127 -463 375 -968 872 -1343
1323 -1275 1531 -2043 3384 -2219 5359 -48 545 -48 1176 1 1735 122 1398 556
2769 1262 3990 597 1032 1398 1965 2332 2716 1578 1268 3487 2002 5520 2123
199 12 899 12 1095 1z"/>
<path d="M6240 10645 l0 -5815 4956 0 c4716 0 4956 1 4951 18 -2 9 -487 1304
-1076 2876 l-1071 2859 1071 2921 c590 1607 1074 2929 1077 2939 4 16 -120 17
-2504 17 l-2509 0 -1015 -2573 -1015 -2573 -6 1161 c-3 638 -7 1796 -8 2573
l-1 1412 -1425 0 -1425 0 0 -5815z m7058 9 c242 -5 332 -9 329 -18 -2 -6 -467
-1300 -1033 -2876 l-1029 -2865 -2 150 c-2 83 -4 1381 -5 2886 l-3 2735 705
-3 c388 -2 855 -6 1038 -9z"/>
</g>
</svg>
